# xmcd CD database file
#
# Track frame offsets:
#	150
#	23395
#	42947
#	66997
#	89287
#	110555
#	129645
#	147080
#	164415
#	189032
#	205137
#	229105
#	260412
#
# Disc length: 3525 seconds
#
# Revision: 4
# Processed by: cddbd v1.5PL3 Copyright (c) Steve Scherf et al.
# Submitted via: CDex 1.50
#
DISCID=ab0dc30d
DTITLE=翠玲 - Cui-ling
DYEAR=1998
DGENRE=JPop
TTITLE0=RESCUE ME 奪回愛恋
TTITLE1=恋をするたびに傷つきやすく…
TTITLE2=LuLuLu しあわせの理由(ひみつ)
TTITLE3=KISSして…
TTITLE4=咲いて･千夜一夜
TTITLE5=Stray Cat
TTITLE6=がんばって…
TTITLE7=アピール
TTITLE8=Sunny side story
TTITLE9=Love Chase
TTITLE10=RESCUE ME 奪回愛恋 (Chinese Version)
TTITLE11=恋をするたびに傷つきやすく… (Chinese Version)
TTITLE12=Data Track
EXTD=YEAR: 1998/03/25
EXTT0=
EXTT1=
EXTT2=
EXTT3=
EXTT4=
EXTT5=
EXTT6=
EXTT7=
EXTT8=
EXTT9=
EXTT10=
EXTT11=
EXTT12=
PLAYORDER=
